# xmcd
# Copyright (C) 1995-1998 Ti Kan
#
# Track frame offsets:
#       150
#       3285
#       22422
#       38550
#       57310
#       77860
#       93900
#       109800
#       128597
#       148222
#       165647
#       182440
#       199247
#       215100
#
# Disc length: 3097 seconds
#
# Revision: 0
# Processed by: cddbd v1.5.1PL0 Copyright (c) Steve Scherf et al.
# Submitted via: CD-Transfer v1.0
#
DISCID=c20c170e
DTITLE=Friends United Refugees - 
DYEAR=1900
DGENRE=
TTITLE0=Intro
TTITLE1=Slowly Down, Freak Me Up
TTITLE2=The Reason
TTITLE3=Light Of Hope
TTITLE4=Best Of Love
TTITLE5=Could That Be Real
TTITLE6=All Day, All Night
TTITLE7=One Nation '98
TTITLE8=Forever Love
TTITLE9=Dangerous Life
TTITLE10=Why Don't You Love Me
TTITLE11=Love Me Touch Me
TTITLE12=Saedni
TTITLE13=Running For The Future
EXTD=
EXTT0=
EXTT1=
EXTT2=
EXTT3=
EXTT4=
EXTT5=
EXTT6=
EXTT7=
EXTT8=
EXTT9=
EXTT10=
EXTT11=
EXTT12=
EXTT13=
PLAYORDER=
